# xmcd CD database file
#
# Track frame offsets:
#	150
#	13554
#	25900
#	39905
#	52496
#	65466
#	80511
#	93239
#	105828
#	119530
#	133000
#	143990
#	157608
#	167699
#	184083
#	199949
#	221761
#	238120
#
# Disc length: 3445 seconds
#
# Revision: 1
# Processed by: cddbd v1.5.2PL0 Copyright (c) Steve Scherf et al.
# Submitted via: CDex 1.70beta2
#
DISCID=f50d7312
DTITLE=Lenny Tristano - Jazz Roads CD368 - Bebop - Lenny Tristano Vol.2 (1949-55)
DYEAR=1900
DGENRE=Jazz
TTITLE0=Progression
TTITLE1=Tautology
TTITLE2=Retrospection
TTITLE3=Subconscious Lee
TTITLE4=Judy
TTITLE5=Wow
TTITLE6=Crosscurrent
TTITLE7=Yesterdays
TTITLE8=Marionette
TTITLE9=Sax Of A Kind
TTITLE10=Intuition
TTITLE11=Digression
TTITLE12=Juju
TTITLE13=Passtime
TTITLE14=Line Up
TTITLE15=Requiem
TTITLE16=Turkish Mambo
TTITLE17=East Thirty-Second
EXTD=
EXTT0=
EXTT1=
EXTT2=
EXTT3=
EXTT4=
EXTT5=
EXTT6=
EXTT7=
EXTT8=
EXTT9=
EXTT10=
EXTT11=
EXTT12=
EXTT13=
EXTT14=
EXTT15=
EXTT16=
EXTT17=
PLAYORDER=
